<svg id="Layer_1" data-name="Layer 1" xmlns="http://www.w3.org/2000/svg" width="750" height="381.41" viewBox="0 0 750 381.41"><defs><style>.cls-1{fill:#fefefe;}.cls-1,.cls-2{fill-rule:evenodd;}.cls-2{fill:#333;}</style></defs><title>tasty-logo</title><path class="cls-1" d="M750,342.2l-2.11-11.89a45.45,45.45,0,0,0-9.42-15.81c-5.79-6.19-12.74-9.31-20.64-9.31a37.88,37.88,0,0,0-4,.25c-7.25.91-13.19,4.18-17.62,6.9l-2.37,1.51a63,63,0,0,0-9.27,6.19l-2,1.61c-1.61,1.31-3.93,3.68-5.54,5,.15-.86,1-2.77,1.21-3.73l2-9.46.81-3.68c.65-3.17,1.16-6,1.51-8.26l.81-4.28c.3-1.15.5-2.51.85-4l1.61-7.36,1.51-7.2,1-5c1-3.88,1.81-8.16,2.67-12.69.75-3.83,1.16-7.65,1.51-11l.25-2.41a106.76,106.76,0,0,0,.76-14.35v-2.62c0-4.53,0-10.22-2.32-15.86A29.35,29.35,0,0,0,668,196.63a69.45,69.45,0,0,0-10.57-1,36,36,0,0,0-8,.85c-9.42,2-15,8.26-17.87,11.58l-.86.91-1.16,1.11a33.15,33.15,0,0,0-2.67,2.61,19.49,19.49,0,0,0-4.53-9.56c-5.29-5.84-13.34-9.57-22.66-10.58-1-.1-2.11-.15-3.17-.15-5.89,0-10.92,1.66-14.6,2.87l-1.51.51-.76.2c-4.17,1.31-10.47,3.27-15.45,8.15a32.23,32.23,0,0,0-4.38-6.69c-6.8-7.86-17.83-9.57-23.82-10a16,16,0,0,0-2.72-.15c-3.22,0-6,.3-8.36.5l-2.16.3c-1.61,0-3.53-.2-5.64-.4-2.52-.25-5.34-.5-8.31-.6-4.68,0-9.31-.15-13.95-.2a10,10,0,0,0-1.81-.11c-2,0-4,0-5.94.11l-5,.1h-2a75.66,75.66,0,0,0-8.06.5c-1.81.15-3.52.3-5,.3h-.15l-3.32-.25c-2.32.05-5.19-.3-8.36-.3h-2.37a71.79,71.79,0,0,0-12.79,1c-3.93.66-15.81,2.72-22.05,13.9l-.4.66a48.19,48.19,0,0,0-2.52,4.53A51.24,51.24,0,0,0,402.78,198a55.9,55.9,0,0,0-10.37-4,20.89,20.89,0,0,1-3.27-1c-2.22-.76-22.16-7.3-29-8.21a54.27,54.27,0,0,0-7.41-.5,48,48,0,0,0-13.09,1.76c-8.05,2.32-13.59,7.25-17.92,11.23v.1c-.51.5-1,.85-1.51,1.26a42.47,42.47,0,0,0-10.07,11.68,106.75,106.75,0,0,0-6.05,13.09l-.5.91c-1.61,4.12-7.8,22-9.06,27.84a136.39,136.39,0,0,0-2.22,14.1c-.5,5.28-.1,22.91.51,28,.5,3.78,1.31,7.81,2,11.33l.76,3c1.15,5.44,5.79,19.24,8.66,26.29a69.42,69.42,0,0,0,3.27,6.79,45.27,45.27,0,0,1,2.52,5.19l1.76,4.83c.8,2.52,1.71,5.24,2.87,8.06,1,2.52,3.77,8.56,6.44,14.45l4.33,9.47c1.21,2.87,2.52,5.53,3.68,7.8.8,1.51,1.51,3,2.11,4.33,1,2.37,2.92,6.39,5,10.57a43.16,43.16,0,0,0-6.24-.5,47.71,47.71,0,0,0-12.09,1.76l-1.26.35c-5.74,1.36-14.2,4-20.64,11.74l-1.66,2-.76-3.88c-.2-1.51-.35-3.32-.5-5.18-.2-2.22-.4-4.53-.76-6.9l-1.31-8.06c-.75-5-2.11-13.44-2.31-15.61-.35-3.52-.71-7.35-1-12.08-.2-1.51-.5-4.63-.75-8.26l-1.41-16.61-.51-8.66c-.5-8.06-.9-13.9-1.16-16.52l-.35-4.88c-.1-2.37-.25-5-.5-7.91-.51-4.38-1.16-8.66-1.76-12.84-.51-3-1-5.79-1.61-8.3l-.91-4.54c-.81-4.53-4.43-21.14-5.74-25.83s-7.55-22.35-10.22-27.44c-2.52-4.88-5.54-11-11.28-15.76-6.14-5.13-13.44-7.65-22.41-7.65h-.8A45.66,45.66,0,0,0,209,209.77c-5.13,2.52-11.73,6.3-16.86,13.35a41.76,41.76,0,0,0-6.25,13.09l-1,3.12-1.77,3.83a72.18,72.18,0,0,0-4,10.07c-1.35,4.38-2.66,8.46-3.92,12l-.81,2.17c-1,3-2.52,7-3.88,11.93-.65,2.52-1.2,5.29-1.76,7.85l-1.26,5.64c-1,4.13-1.86,7.71-2.87,12.34l-2,9.26-1,4.79L159.74,329l-1.36,7.31c-1,4.78-3.62,19.13-4.28,22.75L152.89,365c-.5,2.52-1.11,5-1.51,7.56-.65,3.82-1.51,11.38-2.26,18.12-.51,3.78-.86,7.46-1.11,9l-.61,4.63c-.4,3.17-.85,6.44-1.31,9.16l-1,6.25c-.25,2.11-.51,4-.91,6.19-.8,4.38-3.88,22.66-4.53,27.44-.3,1.86-1.51,8-2.52,12.44-1.21,5.79-2,9.46-2.26,11.58-.51,2.72-1,6.34-1.72,10.07l-1.51,7.75c-.1-3-.3-5.84-.5-8.46l-1.91-16.71-.86-7.3c-.6-5.44-1.91-20.35-2-23.17,0-3.87.4-33.08.5-37.05l.66-12.94c.65-12.94,1-22.26,1.1-25,0-1.36,0-4.23.1-7.55,0-6.45.15-15.21.26-17.88s0-5.33-.16-7.55c0-2-.15-3.77,0-5.28,0-2.52.36-9.47.66-15.61.25-4.33.5-8.31.5-10.07.15-2.62.1-5,.1-7.41v-5.53c.15-3,0-6.7-.15-11.08a4,4,0,0,0-.1-1l10.73-.6,6.54-.3,2-.21c4.53-.35,9.06-.75,13.49-2.41,6.44-2.52,14.6-8.71,17.22-24.57a56.05,56.05,0,0,0-.15-18.13c-1.36-11.58-6.65-18.63-10.88-22.41-4.93-4.53-11.28-7.45-19.94-9.26a77.63,77.63,0,0,0-16.41-2.11h-.4a75.51,75.51,0,0,0-11.23,1.1c-1.21.2-2.52.41-3.73.51-3.72.5-22.66,3-27.69,4.23l-8.06,1.91c-5.69,1.36-14.4,3.52-17.52,4a70.94,70.94,0,0,0-8.66,2.11c-1.91.51-3.67,1.11-5.13,1.36-3.43.61-24.42,4.94-29.71,6.7C9.39,221,2.19,230.27.53,242.85c-.75,6.25-1.31,15.61,2.77,24.68,5.54,12.28,18,14.3,23.31,15.1l1.51.25A64.5,64.5,0,0,0,39.2,284c1.21,0,2.32,0,3.37-.1,1.36-.1,3-.15,4.69-.15H49c.15,6.55.2,19,.15,21.15C49,307.66,49,314,49,320V330c0,1.76-.2,4.13-.35,6.45-.21,2.82-.41,5.69-.51,8.4V371.2l-.35,13-.15,2.16-.55,23.32C47,412.39,47,419,47,425.43v9.71l-.2,11.28c-.1,3.93-.6,20-.8,23.77l-.15,3.32-.51,8.31-.5,2.67a98.91,98.91,0,0,0-1.36,9.92,93.63,93.63,0,0,0,0,9.92l.15,3.92A46.41,46.41,0,0,0,47.41,527c6.54,15.21,18.12,16.82,22.86,16.82a24.44,24.44,0,0,0,6.54-.91l1.87-.5c7.45-2.16,11.32-3.27,14.09-4.73l.91-.4H96l2.21.1c1.11.1,2.12.1,3,.1,15.91,0,21.65-11.94,24.83-18.33.65-1.31,1.51-3,2.36-5.19a30.1,30.1,0,0,0,.86,9.82c2.52,10.07,6.29,14.4,9.92,18,8,8,20.64,8.56,24.37,8.56a25.35,25.35,0,0,0,4.53-.26c7.3-1.1,31.82-5.74,41.29-19.73,4.53-6.85,5.94-21.4,6.29-32.43v-.65H216c2.52.15,6,.4,10,.5-.1,5.94-.3,22.25-.2,26.08v2.27c-.1,3.67-.2,8.76,1.66,14.1a31.75,31.75,0,0,0,15.11,17.77c6.84,3.68,15.35,4,18.63,4a47.49,47.49,0,0,0,5.38-.2c8.56-1,17.22-4.38,22.51-8.87,6.9-5.89,9.57-12.08,11.38-17.77,1.21-3.83,2.37-12.94,3-20a65.35,65.35,0,0,0,5.64,9.16,78.51,78.51,0,0,0,22.56,20.55c3.92,2.52,21.65,10.92,30.21,12.08a97.31,97.31,0,0,0,10.22.66,43.62,43.62,0,0,0,6.9-.51,66.7,66.7,0,0,0,16.61-4.63,68,68,0,0,0,14.81-8.81c5.53-4.13,17.87-19.39,21-25.83.51-.86.91-1.76,1.36-2.62a65,65,0,0,0,5-11.88c.5-1.66,1.36-5.44,2.21-9.87a68.46,68.46,0,0,0,1.16,8.56,43.49,43.49,0,0,0,6.19,16.87c2.82,4.28,9.72,11.58,24.37,11.58a46.11,46.11,0,0,0,5.24-.35,72.94,72.94,0,0,0,13.34-3l2.52-.7c2.52-.76,4.68-1.51,6.55-2.17l3.22-1c8.56-.51,14.6-3.43,18.63-6.9l.75,1.51a107.89,107.89,0,0,0,8.46,14.3,70.61,70.61,0,0,0,10.17,11.18l.76.75c4.13,3.93,8.66,8,14,10.93,8.45,4.53,23.86,9.77,31.21,10.37,2,.2,4.28.3,6.7.3,8.26,0,20.24-1.21,26.18-3.27,12.59-4.33,21.8-13.95,25.78-18.13l.35-.35a138.28,138.28,0,0,0,10.22-11.73c4-5.34,12.19-21.55,13.6-24.82a95.81,95.81,0,0,0,5.29-16.52,111.35,111.35,0,0,0,2.77-16c.5-4.53.65-9.26.8-14.95,0-2.77,0-5.54-.15-8.06l-.15-6c0-1.21,0-2.42.1-3.68.1-3.17.25-6.69,0-10.57-.2-2.17-.5-4.23-.71-6-.25-2-.5-3.88-.5-5,.1-2.11,0-4.38-.1-6.54a.28.28,0,0,0,.25-.1l3.38-2.42c2-1.51,11.48-6.85,16.11-9.42,3-1.71,5.33-3,6.69-3.92a87.94,87.94,0,0,0,11.28-8.31l1.87-1.51c.65-.61,1.76-1.36,2.87-2.22,2.11-1.51,4.78-3.42,7.45-5.74,1.31-1.16,17.37-16.51,21.14-24.52a33.72,33.72,0,0,0,2.17-7V342.2ZM452.58,291.85c0,2-.25,4.43-.5,6.79l-.51,6.35c-.1,2-.65,8.2-1.11,13.19l-.85,10.17-.4,6.55-.41,6c-.15,2.52-.2,5-.2,7.15a40.25,40.25,0,0,1-.2,5l-.5,5.54c-.41,2.67-.76,5.44-.91,8.06l-1.26,14.35c-1,11.73-1.66,19-1.76,21.5s0,6.69,0,13.39c0,4,.15,9.06,0,10.57,0,2.17,0,4.54-.1,7,0,2.17-.1,4.23-.15,6.14s-.51,7.86-.91,12.59L442,464a17.24,17.24,0,0,1-.11,2.17c-.25-2-.5-4.13-.85-6v-.35a45.6,45.6,0,0,0-3.17-10.58,18.81,18.81,0,0,1-1-2.82c-1-4.13-2.22-8.36-3.63-13-1.15-3.72-2.41-7.2-3.67-10.57l-.76-1.92c-1.15-3.12-2.36-6-3.52-9-.5-1-.91-2-1.31-3-1.11-2.52-7.91-18.93-9.92-23.41l-5.29-11.38-5.33-11.23a23.51,23.51,0,0,1-1.21-3.52,71.07,71.07,0,0,0-3-8.06l-2.42-5-2.87-6c-1-2.16-2.11-4.23-3-6s-1.81-3.27-2.52-4.73l-2-5c-.66-1.91-1.51-4-2.37-6.24-.75-1.66-1.51-3.52-2.21-5.54.1,0,.15.1.2.15,3.62,2.37,8.05,5.29,14.1,5.74h2.21a31.43,31.43,0,0,0,19.34-6.9,33.88,33.88,0,0,0,11.93-17.22l.4-1c1.16-3.73,2.77-8.81,2.77-14.6v-5.79l.1-6.2c0-1.91-.1-3.77-.25-5.54a36.29,36.29,0,0,0,10,1.31c2.21,0,4.53-.15,7.45-.4l2.52-.25c0,1.26,0,2.67.1,4.18a21.07,21.07,0,0,0,.1,2.51c.1,3.28,0,19.49-.15,23.32Zm119.93,93.8L565.26,389,563,390c-3.23,1.51-6.55,3-9.92,4.88a65.42,65.42,0,0,0-9.37,6.55,21.69,21.69,0,0,0-2.26,1.66,118.67,118.67,0,0,0-13.75,12.34c-.15,0-.2.15-.3.25.1-2,.15-4.18.1-6.55l-.4-24.32c0-2.26-.1-4.78-.2-7.15s-.21-4.83-.21-6.79c0-1.67.11-3.73.21-6,.1-2.51.25-5.13.25-7.75v-5.54l.1-6.34c0-4.23-.25-18.63-.35-22.81,0-2.52-.21-5.69-.31-8.66l-.2-5.34-.35-6.85c-.15-1.81-.25-3.52-.3-5.38l-.61-10.07c-.2-3.53-.5-7.05-.5-8.92,0-1.61-.2-4.43-.4-7.7l-.51-7.75v-1.72l3.53-.4,3.83-.35a24.56,24.56,0,0,0,2.76-.1c3.93,0,9.32-.1,14.81-2.52-1.11,6.55-2.62,16.62-3,19.79a48,48,0,0,0-.41,9.06v3.63l-.5,4c-.4,2.82-.76,5.74-1,8.66l-.6,4.53c-.35,2.51-.76,5.23-1,8.15-.15,3.23-.8,21.86-.3,27.29a47.82,47.82,0,0,0,5.34,18.94,70.83,70.83,0,0,0,8.56,12.58,45,45,0,0,0,12.08,9.37,48.16,48.16,0,0,0,5,2.52l-.51.25Z" transform="translate(0 -184.3)"/><path class="cls-2" d="M629.81,466.71a70.4,70.4,0,0,1-2.16,13.5,85.56,85.56,0,0,1-5.29,12.69,28.64,28.64,0,0,1-7.8,9.81c-3.28,2.52-7.56,3.33-11.79,3.78A32.91,32.91,0,0,1,590.69,505c-4.18-1.36-8.21-2.82-10.67-5.44-2.72-3-4-7.15-4.84-11.08-.75-3.72-1.71-7.9-.7-11.93,2.11-8,8.31-19.38,11.07-22.25a75.2,75.2,0,0,1,9-8.66c3-2.27,5.64-4.38,9-6.65,3.52-2.27,7.2-4.53,10.37-6.24,4.53-2.52,14.86-10.22,15.61-8.06,1.61,5-.5,5.84.35,18.13a94.09,94.09,0,0,1,0,12c-.15,3.63.61,7.05.1,11.83M732.23,336.46a29.29,29.29,0,0,0-5.84-9.92c-3.18-3.43-6-4.23-9.92-3.73-3.43.4-6.7,2-10.48,4.38-3.17,2-6.79,3.73-10.07,6.4l-9.06,7.55c-3.12,2.67-5.64,6-8.66,8.31a50.23,50.23,0,0,1-10.47,5.84c-5.54,2.41-11.43,5.84-11.43,5.84-1.51-1,.1-11.78.65-15.41.51-3.12,1.16-8.46,2.17-13.9.75-4.12,1.66-7.7,2.51-12.23l2.87-13.34c1.11-5.39,1.72-9.57,2.42-12.74.66-3,1.36-7.15,2.52-11.83.91-3.63,1.61-7.71,2.52-11.89,1-3.82,1.76-7.85,2.51-11.88s1.11-8.21,1.51-12.08a84.38,84.38,0,0,0,.66-12.09c-.1-4.53.3-9.06-1-12.28A12.39,12.39,0,0,0,666,213.9c-4.73-.65-9-1-12.33-.3-4.38,1-7,4.53-9.57,7.3s-5.23,4.13-6.54,8.21c-1.16,3.72-.51,6.44-1,10.57s-1.21,8-1.41,11.89c-.25,4.43-.86,13.39-1.31,17.52s-2.52,15.2-3.27,19.23-1.26,16.31-2.22,21.9c-.6,3.23-1,15.31-4.18,19.54-2.72,3.73-7.35,5.54-12.84,5.69-5.23.25-9.06-2.52-12.79-5.34C595.62,328,595.57,319,595.32,313c-.1-4.33.91-9.06,1.51-14.1.51-4.73.51-9.66,1.36-14,1.11-6,1.71-11.23,2.17-13.95s3.52-18.53,4.43-22.46c.8-3.72,2.62-7.35,3.32-11,.81-4,1.16-8.21,1.66-11.58.91-5.84,1.36-10.07.51-11.08-2.42-2.62-6.8-4.43-11.58-4.93-4.18-.51-8.41,1.2-12.34,2.51-4.38,1.36-8.91,2.52-10.72,6.15a52.31,52.31,0,0,0-3.88,11.78c-.76,3.52-3.78,19.94-4.53,24.17-.61,3.92-3.17,20.24-3.73,24.37s.1,8.3-.4,12.33-1,8.26-1.41,12.24c-.35,4.23-1.26,8.2-1.51,12.18-.25,4.28-.76,21-.4,24.67a32.46,32.46,0,0,0,3.17,12,49.07,49.07,0,0,0,6.24,9.31,27.62,27.62,0,0,0,7.75,6,43.09,43.09,0,0,0,11.74,4.43l11.73,2.12c4,.65,7.55.7,11.58,1.36,6.8,1.11,17.82-.5,17.82-.61.1.66-8,6.2-13.84,9.22-3.23,1.66-6.85,3.52-10.58,5.24s-7.35,3.52-10.57,5c-5.24,2.42-9.32,4.53-10.57,5.14-3.73,1.66-7.46,3.32-11.08,5-3.78,1.71-7.65,3.43-11.18,5.39s-6.44,4.43-9.72,6.9A101.6,101.6,0,0,0,540.94,427c-2.92,3.22-9.06,15.81-10.17,20.14a72,72,0,0,0-2.26,12.79c-.3,4.33-1.36,8.81-1,13.19a114.88,114.88,0,0,0,2,13c1,4.28,6.45,20.14,8.41,24a110.26,110.26,0,0,0,7.05,12,66,66,0,0,0,8.81,9.41,51.27,51.27,0,0,0,10.38,8.26c6.89,3.78,20,8,24.37,8.31,8.56.7,21.9-.76,25.67-2,9.07-3.18,16.52-11.23,19.39-14.2s6.34-6.85,8.86-10.07c2.52-3.38,10-17.73,11.58-21.4a85.86,85.86,0,0,0,4.28-13.6,89.58,89.58,0,0,0,2.37-13.59c.4-4.23.6-8.76.75-13.7.1-4.18-.3-8.76-.25-13.69,0-4.18.4-8.56.1-12.89S660,424.22,660.12,420c0-4.53-.9-11.78-.5-13.4.66-2.31,7.2-6.29,10.93-9.06s20.29-11.93,24.16-14.3a96.09,96.09,0,0,0,11.23-8.46c2.52-2,6.4-4.53,10-7.55,3-2.67,15.11-15.21,16.62-18.63,2-4,.85-8.31-.51-12.28M548.85,230.92a25.43,25.43,0,0,0,2.21-11.18A20.43,20.43,0,0,0,546.94,209c-2-2.32-7.05-3.78-11.89-4-4.63-.35-9.36.76-12.23.71-4.73,0-9.57-.91-14.1-1-4.73,0-9.37-.15-14.1-.2-4.53-.1-9.26.25-13.95.15-4.53,0-9.21.85-14,.8-2.72,0-7.15-.65-11.89-.75a57.46,57.46,0,0,0-11.78.7c-4.53.81-8.05,2.17-9.82,5.29-1.15,2-3.82,5.79-4.53,10.42-.5,3.53.81,7.81,1.26,11.48.5,4,1.51,7.4,3.88,10.07,2.52,2.92,8.36,2.82,14.45,2.22,5.74-.5,17.62-1.81,19.33-.71,1.31.81.66,5.94,1.61,11.58a96.06,96.06,0,0,1,.76,12.39c.15,3.73.1,20.34-.1,24.67-.15,3.93-.71,9.07-1,13.35-.2,4-1.66,19.33-2,23.51-.25,4-.4,8.41-.71,12.59-.35,4-.15,7.95-.4,12.08s-1.21,9.42-1.51,13.6c-.2,4-2.82,31.21-3,35.34s.25,19.79.1,23.77l-.35,13.09c-.15,4.23-1.51,20.64-1.66,24.52-.21,4.38-1.62,20-1.92,23.16a40.26,40.26,0,0,0,.86,11.18c.5,3.17,1.11,6.8,3.52,10.47,2.22,3.37,7.76,4.13,13.24,3.53,4.23-.51,8.72-2,13.1-3.23,5.53-1.51,10.22-3.52,12.84-3.67,6.14-.2,9.66-2.37,11.43-5.74s2.26-7.76,2-13.09c-.3-4-1.41-8.56-1.76-13.3l-.86-12.84-.6-12.78c-.15-4.34-.51-8.56-.71-12.89l-.4-12.84c-.15-4.28.3-8.56.25-12.89s-.5-20.35-.5-24.68-.3-9.66-.36-14.09c0-4.13.51-9.32.51-13.7l.1-11.88c0-4-.25-18.43-.35-22.41s-.31-9.77-.41-13.79-.5-8.06-.6-12.19c-.15-3.93-1-14.75-1.11-18.83l-.8-15.41c-.21-3.82-1.31-14.7-1.31-17.62,0-2.42,6-1.66,13.09-1.81,4.28-.15,8.31-.91,11.88-1.11,4.53-.25,8.71.25,11.83-1.31,3.28-1.61,5.29-5.19,6.7-9.82M358.78,302.37c-1.16-3.12-3.38-8.86-4-14.25-.35-4-.15-17.12,1.16-21.5s4.17-12.79,6.69-16.51a31.11,31.11,0,0,1,8.71-8.87c4.38-2.92,9.07-.8,11.08,2.87,2.67,5,.91,19.29,0,23.52-.86,4-3.52,7.8-3.93,11.68-.4,4.38,1.71,8.16,3.53,11.58.9,1.51,3.52,3.88,6.95,5.89,3.22,1.91,6.34,4.43,8.4,4.53,4.28.4,7.36-1.36,9.87-3.32a16,16,0,0,0,5.89-8.56c1-3.22,2.32-6.9,2.32-10.47V266.67c0-4-.5-8.06-.76-11.93-.25-4,0-8.16-.7-12a58.74,58.74,0,0,0-3.27-11.58A30.77,30.77,0,0,0,404.14,221a37,37,0,0,0-9.41-7.65c-3.53-1.86-7.56-2.52-11.43-4-3.68-1.31-21-6.75-25.18-7.3a33.1,33.1,0,0,0-13.59.76c-4.18,1.2-7.56,4.22-11.08,7.55-3,2.67-5.64,4.38-8.21,8.76a98.86,98.86,0,0,0-5.39,11.83c-1.66,4-7.3,20.75-8.15,24.87a112.92,112.92,0,0,0-2,12.09,231.45,231.45,0,0,0,.51,24.42c.5,3.93,1.66,8.86,2.51,12.84s4.94,16.46,7.71,23.16c1.51,3.62,3.93,7.45,5.79,11.93,1.61,3.88,2.82,8.56,4.53,12.74,1.76,4,9.06,19.89,10.78,23.77,1.86,4.38,4,8.3,5.63,11.88,2.42,5.34,10.07,20.74,12.24,25s3.78,9.07,5.64,13.5a90.15,90.15,0,0,1,4.68,13.84c.71,3,4.84,18.89,5.19,22.81s-.51,17.12-4.33,22.56c-2.82,4.18-4.68,6-9.37,5.69-5.69-.5-9.21-4.73-10.82-9.37-2-5.64-1.26-12.48-1.26-14.6,0-3,.65-7.55.5-12.59,0-4-1.16-8.25-1.91-12.38a33,33,0,0,0-4.28-11.58c-2.22-3.53-4.89-6.75-9.32-7.76-5-1.15-9.31.26-13.24,1.16-4.73,1.11-8.56,2.67-11.43,6s-5.39,7.3-6,12.09c0,0,.6,20.39,1.21,25,.5,3.88,2,7.81,3,12.09a95.62,95.62,0,0,0,3.78,11.83c1.41,3.78,9,18.43,11.58,21.8a65.87,65.87,0,0,0,8.2,9.16,73.63,73.63,0,0,0,9.92,7.31c3.38,2.16,18.43,8.81,23,9.36a50.75,50.75,0,0,0,12.74.35,46.78,46.78,0,0,0,12.29-3.62A43.71,43.71,0,0,0,400,529.7c3.28-2.52,13.85-15.46,15.86-19.63,1.87-3.78,4.23-7.81,5.39-11.69s4-19.73,3.88-23.86A106.93,106.93,0,0,0,423.83,462c-.5-4-2.92-7.7-3.88-11.83-1-3.88-2.11-7.81-3.32-11.83-1.21-3.83-2.67-7.66-4.13-11.58s-3-7.56-4.53-11.43-7.91-18.94-9.67-22.76l-5.19-11.18-5.28-11.08c-1.76-3.72-2.52-7.9-4.28-11.68s-3.53-7.35-5.34-11.08c-1.66-3.77-3.83-7.3-5.54-11.07s-2.87-7.71-4.53-11.58c-1.61-3.68-2.92-7.56-4.53-11.43s-3.37-7.46-4.83-11.33m-119.29,144c-3.87,1-19.13.5-23.16.1-5.64-.5-11.83.25-12.43-1.36-.71-1.91,1.31-10.17,1.51-15.1.15-4.54,1.11-15.91,1.86-22,.5-3.82.5-8.25,1.11-13,.5-4,2-21.65,2.72-26s1.76-8.56,2.51-12.84,1.31-8.66,2-12.84c.75-4.53,4-21.4,5-25.07,1.67-6.95,3.83-14.1,5.24-13.95,1.16.1,2.22,7.2,3,14.9l3.43,41,2,26.59c.35,4.38,1.51,8.81,1.76,13.24s1,8.86,1.31,13.09c.35,4.88.81,9,1,12.89.4,6.19,3,19.94,1,20.44m47.28,60.12c.21-4.23-1.15-8.36-1.31-12.44s0-8.41-.4-12.38c-.5-4.33-1.76-21.15-2.41-24.78-.91-4.93-3.28-20.29-3.78-24.32s-1.66-8.05-2.27-12.08-.7-8.06-1.26-12.08-3.42-20.24-3.77-24.42l-1.11-12.44c-.35-4.13-1.76-20.64-2-24.82s-1.26-20.75-1.67-24.88-.4-8.3-.85-12.43-1-8.26-1.66-12.39-1.66-8.16-2.42-12.23-4.28-20.3-5.39-24.32c-1.16-4.18-7.05-20.45-8.91-24.07-2.16-4.13-4.13-8-7.15-10.47-3.27-2.77-7-3.63-11.78-3.53-3.63,0-7.4,1-12.09,3.17-4,2-7.8,4.38-10.57,8.06-2.52,3.52-3.42,8.06-5.13,12.39-1.72,4.12-3.93,8.15-5.24,12.43-1.36,4.53-2.77,8.86-4.18,12.84-1,3-2.82,7.35-4.23,12.59-1,3.93-1.81,8.36-2.92,13.09-1,4-1.86,7.55-2.87,12.08l-2.87,13.9c-1,4.38-2.32,12.59-3.17,17-.91,4.53-3.53,18.28-4.23,22.46-.86,4.78-2,9.06-2.67,13.09-.91,5.64-2.62,22.15-3.22,26.68s-1.31,9.82-2,14.3-1.2,8.21-2,12.59c-.81,4.53-3.78,22.46-4.43,26.89s-4.28,20.49-4.78,24.06-1.11,7.15-1.82,10.73-1.36,7.05-2.11,10.72c-.91,4.54-3.17,13.45-2,18.13,1.67,6.24,3.43,8.06,5.54,10.07,2.92,3,10.73,4,14.1,3.53,6.75-1.11,24.67-5.39,29.41-12.34,2.16-3.27,3.27-19.44,3.42-23.26.1-4.13.65-15.61,1.41-16.72,1-1.31,6.19-.91,14.5-.86,1.81.11,7.55.76,13.34.71s14.71-.15,15.21.65c.7,1.26.6,10.33.5,16.22s-.3,22.76-.25,26.38c.1,3.88-.35,7.65.76,10.88a14.24,14.24,0,0,0,6.94,8.15c2.67,1.51,8.36,2.52,13.9,1.87s10.78-2.87,13.09-4.89c3.88-3.27,5-6.29,6.15-9.82,1-3,2.71-18.83,2.81-23.56M162.46,231.63c-.5-5-2.17-9.17-5.24-11.94s-7.4-4.23-12.08-5.23a62.1,62.1,0,0,0-13.09-1.72c-4.18,0-8.56,1-13.09,1.52-4.33.5-22,3-25.88,3.87-5.34,1.21-21,5.14-26.44,6-4.38.76-8.91,2.67-13.69,3.53s-23.77,4.93-27.19,6c-4.74,1.61-7.2,5.44-8,11.28-.6,4.78-.9,10.37,1.31,15.26,1.66,3.67,5.84,4.53,10.27,5.23C33,266,37,267,41.26,266.62c4-.4,8.36-.1,12-.5,5.74-.51,11.18-1.72,11.93-.41s.66,7.71,1,13.35c.25,4.23.35,23.36.25,26.28-.1,4.33,0,20.39,0,24.82s-.81,10.38-.86,14.81V371.4c-.1,4.43-.3,11-.5,15.36,0,4.43-.5,19.23-.5,23.31s-.2,20.29-.25,24.37l-.16,12.18c-.1,4-.6,20.35-.8,24.37s-.35,8.16-.71,12.19c-.2,2.77-1.41,7.3-1.81,12.38-.25,4,.2,8.56.2,12.59a30.48,30.48,0,0,0,2.42,11.93c1.76,4.18,4.53,7.15,8.76,6,4.13-1.26,11.08-3.12,12.84-4,5.24-2.67,7.05-2.32,11.28-2.27,7.8.1,9.36,1.77,14.3-8.46,1.61-3.22,3.37-7,3.62-11.37a90.15,90.15,0,0,0-.3-12.09c-.35-3.93-2.37-20.14-2.72-23.56-.5-4.18-2-20.65-2-24.88s.3-33.73.5-37.86,1.51-33.23,1.61-37.61.2-21.5.36-25.78-.31-8.56-.16-12.94,1-21.45,1.26-25.78-.1-8.56.1-12.84c.2-5.89-1-19.64-.15-25.07.41-2.52,9.22-2.27,10.88-2.87,2.52-1,18.33-1.52,21.85-1.77,4.33-.4,8.46-.6,11.08-1.51,3.52-1.41,5.33-5.94,6.19-11.18a36.36,36.36,0,0,0-.2-12.78" transform="translate(0 -184.3)"/></svg>