<svg xmlns="http://www.w3.org/2000/svg" viewBox="0 0 355.01 54.11"><g id="Layer_2" data-name="Layer 2"><g id="Layer_1-2" data-name="Layer 1"><path d="M61.7,6.39a17.34,17.34,0,0,0-10-3,17.15,17.15,0,0,0-9.94,3,19.89,19.89,0,0,0-6.84,8.4,29.4,29.4,0,0,0-2.46,12.3,29.1,29.1,0,0,0,2.46,12.25,19.89,19.89,0,0,0,6.84,8.38,17.15,17.15,0,0,0,9.94,3,17.34,17.34,0,0,0,10-3,19.86,19.86,0,0,0,6.86-8.38A29.1,29.1,0,0,0,71,27.09a29.4,29.4,0,0,0-2.46-12.3A19.86,19.86,0,0,0,61.7,6.39ZM56.61,32.52a9.41,9.41,0,0,1-2,3.79A3.9,3.9,0,0,1,51.7,37.7a3.79,3.79,0,0,1-2.89-1.39,9.27,9.27,0,0,1-1.94-3.82,19.74,19.74,0,0,1-.69-5.4,20,20,0,0,1,.69-5.47,9.27,9.27,0,0,1,1.94-3.82,3.79,3.79,0,0,1,2.89-1.39,3.9,3.9,0,0,1,2.95,1.39,9.41,9.41,0,0,1,2,3.82,20.42,20.42,0,0,1,.68,5.47A20.06,20.06,0,0,1,56.61,32.52Z"/><path d="M134.26,4H107.72a.25.25,0,0,0-.25.25V15.6a.26.26,0,0,0,.25.26h6.79v34a.25.25,0,0,0,.25.25h12.46a.25.25,0,0,0,.25-.25v-34h6.79a.26.26,0,0,0,.25-.26V4.27A.25.25,0,0,0,134.26,4Z"/><path d="M162.69,4H138.15a.25.25,0,0,0-.25.25V49.84a.25.25,0,0,0,.25.25h24.54a.25.25,0,0,0,.25-.25V38.51a.25.25,0,0,0-.25-.25H151.61V32.85h8.1a.25.25,0,0,0,.25-.25V21.26a.25.25,0,0,0-.25-.25h-8.1V15.86h11.08a.26.26,0,0,0,.25-.26V4.27A.25.25,0,0,0,162.69,4Z"/><path d="M177.55,4H167V50.09h10.58c15.06,0,24-7.45,24-23S192.61,4,177.55,4Zm2.91,34.25V15.86c1.43,0,7.35-.51,7.35,11.23S181.38,38.25,180.46,38.25Z"/><path d="M98.37,32.13a15.07,15.07,0,0,0,7.46-12.82C105.83,12.39,102,4,88.19,4H74.37a.25.25,0,0,0-.25.25V49.86a.25.25,0,0,0,.25.25H87a.25.25,0,0,0,.25-.25v-11c7.21,0,7.79,6.08,7.83,11a.25.25,0,0,0,.25.25h13.54a.26.26,0,0,0,.25-.26C109,40.23,104.81,34.54,98.37,32.13ZM87.28,15.35h.41c3.3,0,5.65,2.06,5.65,5A5.59,5.59,0,0,1,88.05,26h-.77Z"/><path d="M15.15,17.48c0-.79.53-1.59,1.91-1.61,2.18,0,4.54,2.25,6,4.52a.22.22,0,0,0,.35,0l7.23-9.28a.14.14,0,0,0,0-.16A18.46,18.46,0,0,0,15.36,3.39C8.3,3.49,1.78,9,1.89,16.75,2.07,30,17.74,32.3,17.8,36.18a1.68,1.68,0,0,1-1.88,1.76C12.81,38,9,34.07,8.11,31.3a.23.23,0,0,0-.24-.17h0a.25.25,0,0,0-.2.09L.05,41a.29.29,0,0,0,0,.24c1.76,4.86,8.53,9.54,15.21,9.45,9.32-.13,15.93-6.61,15.82-14.44C30.87,23.84,15.21,21.57,15.15,17.48Z"/><path d="M354.91,14.51l.1-.73-.12-.35v-.5l-.09-.66-.19-.25.06-.53-.26-.34-.16-.5-.39-.64-.15-.44L353.44,9l-.18-.65-.34-.23-1.05-1.72-.3-.15,0-.32-.83-.55-.22-.23-.42-.34-.53-.3-1.11-.76-.77-.38-.38-.15-.18-.29-.87-.51-1-.13-.34-.08L344.66,2l-.33,0-.79-.21L343,1.57l-.32,0-.57-.17-1-.19L339.79,1l-.45-.18-.43-.06-.48-.17L336.64.34h-.32L334.49,0l-.8.06L332.1.29l-1.23.09-.4-.06-.82.14-.63,0-.34,0-1.13,0-2,.73-.84.12-.48.12-.39-.05-1.45.36-.79.43-.67.15-.78.32H320l-.57.16-.74.12-.82.25-1.61.26-.44.27-.32.12L313.5,5V6.44l.12.34,0,.37.12.2.06.36.25.55.69,1.1h1.1L317,9.13h.29l1.52.19,1-.24.64-.18.17.07,1.28-.17,1.74-.85.19,1,.07.06-.09.42-.59.22-.62,1.28,0,.19-.21.31v.7l-.89,2.67.69.09-.09.4-.26.75-.43.71v.74l-.36.74-.31.9,0,.06-.1.15,0,.51-.09.28-.24.36,0,.24-.25.44-.11.91-.15.68-.22.8L319.36,25l-.45.8,0,.28-.17.5-.19.34,0,.09-.55.88-.7.49-.37.53-.45.21-.36.07-.94.7-.6.4-.76.38-1.47.41-.36.27-.67.35-1,.7-.65.19-.29.16-.64.15-.41.14-.45.08-.29.23-1,.15-.7.38h0l-.54,0-.29.11-.57,0-.56.15.3-.48.19-.21.34-.66.34-.46.5-.47,0-.33.26-.2.06-.47.32-.34.48-.89.25-.33.39-1v-.14l.49-.72v-.29l.17-.33.17-.49.38-.77,0-.48.39-.69.18-.54.07-.63.16-.35,0-.33.15-.32.12-.63.57-1.15-.09-.49.36-.76v-.8l.12-.41-.11-.37.09-.21.05-.7.14-.49-.06-.16,0,0,0-.42.14-.23,0-.56.2-.67-.16-.66.06-.21L311,12.6l.08-.26,0-.59-.05-.33v-.3l-.28-1.33,0-.36-.15-.62,0-.41.11-.4-.16-.42,0-.15,0-.28-.13-.61-.1-.25L310,5.07l-.24-.42-.33-.4-.2-.37-.13-.12,0-.12-.31-.42-.54-.52-.13-.22-1-1-.41-.69L304.85.3,303.7.14l-.27,0-.8-.13-.37,0-.67,0-.35,0-.31,0-.48,0-.52.11-.87.09-.38,0-.77.16-.29,0L297,.54l-1.28.68-.39.39-1.07.44-.57.63-.23.46-1.08.55-.17.29-1.62,1.55.2.11,0,0-.84.75-.56.46-.79,1-.07,0-.82,1-.25.21-.2.36-.31.26.17-.08-.28.39-.28.34-.24.31-.45.24-.29.75-.33.3-.1.37-.2-.06-.7,1.42L284,14l-.33.74-.5.22-.52,1.25-.64.82.36.51-.33.74-1,.5-.74,1.56.34.61-.56.52-.68.86.1.35-.16.55-.22.32-.22.91-.52.21L278,25l-.32.39-.26.12-.26.21-.55.2-.31.17-.37.29-.18,0-.46.33v0l-.05,0,0,0-.34.14-1.31,1-.39.18-.26.3-.07,0h0l-.7.37-.06.1-.72.3-1.25.9-.2.1.27-.56.27-.25.2-.47.06-.29.25-.24.22-.31.54-1.14.28-.47.31-.31.66-1.19,0-.28.26-.22.29-.63.38-.34.13-.55v-.38l.2-.24.11-.21.31-.17.13-.2.13-.95.27-.4.07-.2L275,20l.08-.2.05-.07,0,0,.07-.15.59-.69v-.12h0l0,0,.44-.7-.16-.29.44-.4.23-.75.13-.22v-.33l.56-.55-.14-.87,0-.14.07-.14.09-.77h0l0-.11v-.06l.06-.1v-.2h-.1l.36-1-.07-.63.2-.47.07-.4-.18-.56.23-.29.23-.68V8.9l-.08-.63-.19-.68,0-.41-.09-.32V6.61l-.18-.6-.47-.74-.34-.44-.27-.28L276.49,4l-.25-.38-.47-.47-.23-.09-.27-.38-.36-.12L274.46,2l-.56-.13h-.14l-.1-.15L273,1.37l-.46-.18-.47-.07-.62.09h0l-.56-.1L270.87,1l-1.36.07-.78.15v0l-.49.07H268l-.57.16-.16.09-.19,0-.44.17-.12.08-.47-.2-.63-.32-.24,0L265,1.22l-.4,0-.81.07-.33.09-.25,0-.57.15-.51.31-.82.16-.48.23-.21.16-.18.08-.46.33-.06.08-.1,0-.85.69,0,0-.66.54h0l-.08.06,0,.07-.36.36-.06-.09-.28.18-.27.09-.38.29-.52.19-.66.66-.24.11-.27.2,0,.27-.61.3-.35.28-.34.4,0,.2h-.17l-.41.4-.07.17L253,8.4l-.43.63-.07.27-.42.36,0,.09-.32.17-.4.33-.2.27-.17.32-.63.79,0,.2-.6.24-.33.27,0,.22-.32.2-.14.14-.25.39-.08.21-.1.07-.44.57-.16.5-.59.45-.13.2-.14.44-.47.64v0l-.31.21-.06.58-.18,0-.21.25-.18.11-.52,1.14h0l-.24.12-.13.28-.3.42.09.16-.1.05-.6.78-.12.6-.11.11-.09.37-.56.43-.26.29-.2.34-.42,1.09-.36.55-.48.93-.11.4,0,.28-.45.9v.31l0,.19-.16.23-.12.48-.36.55-.12.41-.07.07v.11l0,.09h0l0,.27-.07.09h0l-.39.69v.28l-.28.57-.11.31-.14.86-.19.17-.2.47-.07.62.06.41.06.17-.08,0-.07.21,0,.21-.41.41v.54l-.26.25h0l-.2.75.05.73.05.11-.17.69v.58l.06.23-.09.31,0,.32-.26,1,0,.27.13.26-.09.69,0,.1,0,.06.23.31h-.13v.27l-.09.17,0,.92.14.33.18-.07.16.12h-.15l.52.29-.31,0,0,.22h0l0,.06,0,.18h.08l-.27.33,0,.2,0,.54.06.41.28.32.12.31.52.56,0,.15.74.88.19.06,1.11,1.14h.13l.07,0,.74.31h1.08l.57.62.41.3.27.12.35.3.48.27.87.22.06-.18.09,0v0l.2.13.39.07.11,0h0l.36.06.27-.07.07-.17H247v-.15l.2.05.09-.34h0l.18.08v.19l.27.07,0-.11.47.23.27-.14.07-.11.34,0,0,0,.39,0,.67-.2,0-.22.54-.12.4-.27.44-.41.13-.09L252,50l.47-.2.29-.8.23-.27.59-.07.19-.15.93-.43.4-.33.3-.39.29-.62.44-.32.3,0,.18-.3.17-.12v-.18l0,0,0,.06.81-.67-.06-.24,0-.09.22,0,.47-.21.53-.8.36-.24.17-.17.22-.14.32-.28.36-.48.35-.35.18-.23.21-.38.18-.06.11-.34.11,0v-.3h0l.1,0,.27-.2.41-.89.2-.13v0l.41-.14.7-.83.07,0,.81.3.41-.07.74-.48.4,0,.14-.14.5-.15.89-.51.23,0,0-.21,0,0,0,0,.07-.44,0,.34.26,0,.06,0,.06-.06.58-.1.65-.4.2-.25.68-.1.4-.51.34-.27h.14l.15-.16.41-.09L272,35l.45-.32.16-.08-.08-.15h.12l.68-.53,0,0,.47-.34.05-.1.55-.12.36-.45.74-.22.27-.2.26-.41.34-.13.48-.6.12,0,.1-.09.16-.05,0,.4-.83,1.36-.13.46-.53.42-.32,1.12.17.2v.15l-.12.25-.13.43-.85,1.7L274.41,39l0,.09-.07.07-.81-.56-.39,2.51.08.3-.15.51,0,.82.31.66,0,.5.13.46.06.6.22.26.32.65.11.12v.38l.39.84.23.59.56.39.27.24.94.49.47.46.35.17.4.45.39.2.48.37,1.26.68,1.94.75h1.3l.6-.14.41.05.49-.13.26,0,1.06-.33h.47l2.63-1,.42-.3.44-.24.41-.28.7-.28,1.2-.89,1.23-.68.38-.42,1.85-1.49,1.06-1,.08-.14.48-.4.52-.91.29-.21.44-.59.41-.84.43-.39.33-.63.48-.18.2-.06h.29l1.19-.27,1.73-.23.81-.29,2-.32.57-.32,1.25-.26,1.11-.42.8-.22,1-.64.64-.47,1.18-1.2.4-.26.56-.43.54-.13.2-.17.38-.19,1.44-1.05.06-.06-.22.82.13.43-.47.54,0,.62-.8.65.27.5-.05.47-.15.17-.12.85.05.16,0,.27,0,2,.95-.21-.16.61-.46,1.21v.18l-.18.24-.31.92-.35.09-.1-.92-2.16.79-.25.92-.15.29-.6,1.86.82,2,.08,0L312,50.26l.33.42L312,52l.36.31-.53,1.26,1.48.16.48.34L315,54l.18-.09.71-.17,1.18-1.28.31-.25.48-.07,1-.77,0-.1.42-.17.58-.61.64-.49.41,0,.74-.58,0-.07h.56l.44-.66,1.26-.72.75-.58.17-.12,1-.09.54-1,.55-.35.13-.12.82,0,.21-.46.63-.34.8-.6.09-.29.19-.13.77-.34.7-.6,1.11-.71.6-.6.06-.08.26,0,.64-.5.58-.29L335,40l.79-.56.29,0,.89-1.12.19-.21.15-.07.48-.33.6-.25.56-.61.36-.47.87-.54.37-.29.73-.9.19-.2.29-.4.26-.23.36-.13.71-.49.76-.72.33-.42.9-.56.31-.48,1-.51.28-.5.24-.26.85-.72.61-1,.31-.3.47-.21.42-.63.55-.49.57-.75.23-.08.64-.74.07-.17.52-.55.34-.62.29-.28.41-.7.49-1.06.26-.4,0-.43.22-.49.18-.71.21-.37.14-1.16.12-.53.09-.63-.05-.7Zm-77.43-1.3h0ZM255.75,36.88V37l0-.1Zm-2.14-19.77,0,0-.07.1Zm2.12,20.65-.5.74.07.11-.19.15h0l-.21.39-.42.17-.07.07.11.11-.14,0-.49.39L253,41.12l-.14.14-.22,0-.87.61-.09.18-.55.39-.1.13-.51.15-.42.74-.11.12-.31.16-.42.36-.81.61-.23.33-.09,0H248l-.62.45h-.31l-.85.54-.93.36H245l-.2.06,0-.3-.53-.6v-.24l.17-.39.06-.76-.14-.47-.08-.12.07-.1-.12-.81.17-.41v-.41l-.12-.65.16-.61-.27-.61,0,0,.52-.42.07-.34-.2-.35.22-.54v-.34h-.26l0-.21,0-.13h.26v-.33h0l.2-.28.2-.89v0l.08-.21-.21-.45.32-.44,0-.14.07-.13,0,0,.14-.43.06-.3.34-.46v-.47l.38-1.24,0-.06.27-.17.27-.47-.06-.43h0l.06-.27,0-.43.2-.38v-.27l.23-.11.27-.33,0-.51.28-.28.31-.6.07-.41V26.9l.26-.79.21-.18,0-.17.13-.27.07-.21.15-.18.2-.58.33-.45,0-.15.49-.49-.06-.24.23-.34.36-.42-.06-.24.15-.2.21-.42.51-.61v-.51l.32-.08.94-1.85v0l.19-.19-.38,1.14.13.27.12.05-.07.15h-.31l-.14.13L252,21.18v0l-.21.42-.08.12.09.22-.08.08.11.67,0,0-.26-.05-.07.34v.13l-.35.42v.27l0,.09-.11.62.13.47h.15l-.14.27.06.13,0,.41-.28.31v.14h.24l-.06.64,0,.08h-.24l-.13.27.05,1.09.09.14-.14.2.27.6v1h-.05v.27l.05,0v.22l.11.1-.1.13,0,0-.09.23-.07.07.14.4.12,0,.34.34-.28,1.07.14.47.47.36h0l-.05.27v.34l.89,1.09.33.06,0,.24.34.34H254l.55.3-.24.24.14.13,1,.31.34-.07v0h.05l0,.24.13.1Zm13.92-20.15-.27.77h-.11l-.27.4-.19.62v.46l-.51.74,0,.15-.11.17-.08.32-.41.55-.17.29-.35.29-.2.27-.24.44-.06.25-.24.18-.12.56-.36.54-.24.3v.17l-.1,0-.2.33,0,.15-.52.45-.53.68,0,.21-.26.21-.27.54.14.07-.61.53-.47.95.06,0-.43.29-.2.34-.05.15-.63.55-.14.34.06.27-.68.68v.28l-.13.33v.1l-.32.15,0,.13-.49.21-.13.2-.12.07,0,.06-.06.08.07,0h-.13l-.2.2.13.13-.23.22-.07,0v0l-.79.19-.12.05-.65-.57-.4-.3,0-.62-.17-.59-.29-.45.07-.74-.11-.22-.19-.76.27-1,0-.25,0-.38-.07-.55h0l.07-.21,0-.14.17-.31V27l0-.36v0l0-.25.13-.41-.11-.23.12-.1.14-.27v-.69l.35-1.51,0-.11.1-.08h0l.13-.11.24-.47.06-.21V22l.27-.36.2-.4.11-.64-.06-.46.13-.15.28-.73.12-.26.12-.67.15-.17,0-.13.22-.33.39-.35.31-1,0-.13.16-.53.65-.9.07,0,.2-.33.38-.35.19-.46.28-.28.25-.6.43-.3.11-.33.4-.45,0-.31.26-.2.59-.57,0-.23.2-.12.2-.34h0l.23-.25h0l.24.12.16-.31.14-.19-.07-.06.14-.18.13-.05.29-.4,1-.69H267l.32-.32.33-.24.05-.13.19-.19.37-.23.32.08.34-.2.17-.42.14,0,.06.15h.2l.5-.11.27-.14.13-.21.1-.07h.27l.42.13.39-.4.17.12.14.06-.06.25v.14l.06,0-.06,0,0,.35.21.61.29.34-.15.19V8l.19.62.19.29-.26.48h0l-.15.35v.14l.27.06.09.28-.24.53-.05,0-.33.47.07.3-.41.68v.65l-.15.41.13.15-.07.05-.44.88-.1.06-.2.4.22.36-.14.13-.54.95v.17h0l-.13.14v.64l-.23-.06-.06.27v.05Zm19.9,23.86-.71.58-.39.22-.23.34-.35.23-.42.16-.49.53-.16.11-.4.11-.64.52-1.13.59-.57.18-1,.6-.23.07-.32,0-.29-.09-.7.07-.58-.16-.07,0-.1-.36,0-.45-.17-.48.21-1.25,0-.29.19-.35.1-.76.41-.29L281.5,40l-.14-.46.35-.76.42-1.14,0-.28.36-.69.16-.48,1,.83.21.24.24.17.14.24,1.41.94.61.61.5.35,1,.47.78.24.61.49.84.35Zm14.17-27.55,0,.45-.28,1-.08.58-.16.41v.25l-.62,2.28-.13.21-.24.84V20l-.45,1.48-.34.65-.12.7,0,.19-.49.41.15.56-.23.59-.23.39-.26.8-.47.78-.42.79v.16l-.13.17-.14.52-.22.28-.38.73-.15.19-.27.53-.35.46-.35.63-.3.32-.37.57-.31.72-.56.8-.54.55-.17.34-.54.57-.31.36-.4.17-1.13-.19-1,.09-1.29-.16-.93-.16-1-.34-.36-.06-.31-.19-.11-.28-.41-.28L287,33.4l-.47-1.74.05-.45-.22-.59.42-.68-.18-.48.07-.44.23-.44.21-.66.1-.2.12-.32.3-.39.45-.83,0-.2.71-.67.57-2,.49-.27.28-1v-.23l.81-1.13.66-1.29.14-.18.42-.24.55-.8.3-.28.44-.72.17-.25.58-.51.16-.55.23-.36.35-.42.36-.32.26-.29.63-.4.1-.11.36-.24.76-.8.75-1.08v-.32l.24-.55.26-.84-.26-.72.36-.34.5-.36.38-.21.72-.72.4-.22.13-.14.53-.22.54-.4.26-.11.44-.28.33-.12.21-.17.42-.11.41-.37.23.3.05.16-.16,1,.2,1,.17.21,0,.25.08.23-.13.46.07.35-.08.39-.17.61v.69l-.12.41.05.29-.11.38.11.34-.21.74Zm46.66.5-.26.38,0,.25-.18.32,0,.22-.44.66-.19.29-.65.68-.05.36-.29.61-.67.36-.45.68-.15.17-.43.25-.3.63-1.06,1-.28.35-.5.5-.37.48-.82.75-.25.19-1.25,1.48-.92,1-.46.44L340,27l-.5.4-.92,1.39L337.4,29.9l-.26.55-.59.46-.46.21-.5.05-.23.92-.14.11-.16.24-.82.4-.17.27-.43.54-.59.34-.77.13L332,35l-1.07.45-.67.86L329,37l-.5.63-.19.12L327,36.87l-.57.26-.92.48-.26.32-1,.73-.88.45-.62.48-.34.19.32-.7.21-.37.12-.48.26-.49.79-.3-.45-1,.66-1.39.35-1.27v-.14l.1-.2.1-.8.21-.75.32-.7-.09-.28.47-.79-.05-.8.05-.2.17-.17.27-.55.28-1.14,0-.2,0-.13.31-.41.36-1.23.42-.7,0-.75.24-.55.44-.65-.09-.61v-.28l.31-.61.18-.45.11-.09.8-1.21.19-.87.41-1.25.12-.8-.09-.47.13-.32.45-.74.24-.81.72-1.18.09-.74.2-.41.26-.74,0-.14.11-.23.2-.82.21-.37V9.34l.17-.18,0-.49.49-.79.34-1.1.26,0h.32l.3.12L336,6.84l.64.08.5-.12,1.21.26.41.05.58.17.35.2.82.18.69.09.22,0,.47.47.79,0,.29,0,.71.21.29,0,.6.33.72.15.61.35,1.29.62.48.26.84.22h.07l.28.35.31.23.27.66.28.2v.06l.37.84.33,1.22.06.06Z"/><polygon points="236.32 24.93 236.18 24.83 236.33 24 235.55 23.04 235.19 22.67 234.64 21.78 232.79 22.39 232.28 22.43 232.02 22.55 231.71 22.5 231.1 22.81 230.89 22.41 229.29 23.01 228.17 23.15 227.89 23.3 227.47 23.13 226.7 23.43 225.05 23.61 224.95 23.35 225.46 23.06 225.63 22.19 225.62 21.57 225.71 21.29 226.14 20.63 226.71 20.11 226.87 19.73 227.31 19.24 227.29 18.96 227.81 17.91 227.74 17.54 227.96 17.06 228.15 16.27 228.18 15.83 228.44 15.19 228.79 14.74 228.89 14.22 229.16 13.63 229.31 13.36 229.58 13.02 229.94 12.99 230.2 11.92 230.53 11.4 230.51 10.87 230.96 9.72 230.93 9.35 231.06 8.91 231.59 7.44 231.65 7.25 231.83 7.06 231.96 6.76 232.73 6.63 233.55 6.59 233.79 6.56 234.77 6.66 235.4 6.51 235.7 6.54 236.25 6.52 236.35 6.51 236.37 6.54 237.29 6.51 237.8 6.65 238.19 6.56 238.57 6.67 239.33 6.43 240.01 6.43 240.18 6.42 240.58 6.67 241.26 6.63 241.39 6.64 241.67 6.77 242.18 6.74 243.16 6.79 243.23 6.85 244.26 7.13 244.56 7.17 244.88 7.34 245.29 7.38 245.76 7.53 245.85 7.65 245.9 8.15 246.46 9.35 247.65 9.71 248.9 9.1 249.33 8.4 249.49 8.23 250.55 6.33 250.36 5.83 250.38 5.66 250.21 4.8 250.12 4.43 250.2 4.02 250.28 3.3 249.67 2.17 249.66 1.06 248 0.46 247.08 0.85 247.04 0.85 246.88 0.41 245.55 0.76 245.18 0.63 244.79 0.67 244.25 0.52 244.06 0.59 243.92 0.5 243 0.52 242.48 0.61 241.71 0.51 241.1 0.52 240.73 0.56 240.1 0.55 239.18 0.46 238.78 0.49 238.64 0.47 238.64 0.47 238.26 0.44 238.15 0.3 236.18 0.56 235.93 0.35 234.33 0.71 234.05 0.69 233.31 0.78 232.88 0.87 232.34 0.9 231.97 0.78 230.86 0.54 230.02 0.87 229.31 0.9 228.6 1.07 228.28 0.46 226.58 1.11 226.33 1 226.02 1.2 225.19 1.09 224.59 1.25 223.8 1.24 222.8 1.46 222.4 1.42 220.85 1.73 219.59 2.09 219.29 2.06 217.91 2.37 217.68 2.44 217.43 2.41 216.57 2.71 215.95 2.77 215.05 3.03 214.82 3.06 214 3.27 213.63 3.3 212.85 3.63 212.09 3.86 211.12 4.27 210.73 4.7 210.03 5.69 210.05 6.41 209.94 6.76 209.96 7.07 209.86 7.25 209.7 8.07 209.59 9.09 210.42 10.79 211.92 11.12 212.84 10.66 213.41 10.32 214.38 9.92 216.17 9.57 216.76 9.37 217.2 9.27 217.68 9.11 217.98 9.1 218.59 8.96 219.03 8.76 219.09 8.75 219.39 8.78 220.4 8.55 220.87 8.35 221.49 8.21 221.76 9.05 221.78 9.2 221.02 10.65 220.64 11.07 220.6 11.44 220.12 13.78 220.26 13.77 219.9 14.66 219.74 15.34 219.64 15.67 218.67 16.88 218.88 17.48 218.73 17.75 218.25 18.07 218.06 19.05 217.9 19.41 217.9 19.84 217.75 20.34 217.26 20.88 217.19 21.69 216.98 22.5 216.92 22.71 216.19 22.84 215.87 24.24 215.21 24.36 214.07 24.48 212.58 24.59 211.69 24.77 211.29 24.71 210.72 24.87 209.85 24.89 208.85 25.4 208.04 27.33 207.83 27.77 207.72 28.94 208.03 29.89 208.46 30.1 209.33 30.69 211.09 31.06 211.56 30.84 212.58 30.77 213.32 32.29 212.89 33.49 212.6 33.8 212.54 34.12 212.3 34.82 211.83 35.65 211.98 35.94 211.81 36.4 211.69 36.56 211.35 37.54 210.65 38.89 210.81 39.12 210.56 39.49 210.31 40.3 210.26 40.56 208.84 43.07 207.99 44.42 207.71 44.5 207.26 45.58 206.65 46.71 206.46 47.26 206.18 47.45 205.99 48.43 205.95 49.26 206.57 50.74 207.17 50.48 208.14 50.9 208.14 50.94 208.2 50.94 208.68 52.01 209.8 52.23 210.86 52.63 211.33 52.45 212.15 52.61 212.76 52.66 213.68 52.84 215.24 50.91 214.98 50.3 214.89 49.77 214.82 49.63 215.27 48.58 215.73 47.76 216.15 46.5 216.02 46.17 216.13 46.05 216.28 45.28 216.23 45.15 216.57 44.27 216.59 44.27 217.47 43.12 217.31 42.66 217.71 41.95 217.6 41.8 217.84 40.8 217.84 40.78 218.5 39.84 218.6 39.32 218.78 38.98 219 38.83 219.21 38.38 220.23 38.04 219.65 37.02 220.01 36.51 220.79 35.14 221 34.03 220.93 33.67 221.11 33.27 221.41 32.73 221.45 32.28 222.22 31.5 221.83 31.05 222.18 30.76 222.23 29.8 222.92 29.73 224.21 29.83 226.1 29.3 226.57 29.25 227.12 29.11 227.52 28.94 228.01 28.85 228.15 28.84 228.43 28.88 228.42 28.89 228.46 28.88 228.54 28.9 229.87 28.75 230.8 28.6 231.14 28.57 231.75 28.58 232.37 28.52 232.79 28.62 233.35 28.57 233.58 28.67 234.31 29.27 235.99 28.94 236.65 27.78 237.02 26.64 236.94 25.8 236.32 24.93"/></g></g></svg>